# xmcd
#
# Track frame offsets: 
#        150
#        7789
#        19218
#        34427
#        48296
#        60587
#        74296
#        88246
#        101471
#        114539
#        129984
#        154369
#        164199
#        174225
#        187756
#
# Disc length: 2734 seconds
#
# Revision: 1
# Processed by: cddbd v1.5.2PL0 Copyright (c) Steve Scherf et al.
# Submitted via: ExactAudioCopy v0.99pb4
#
DISCID=c10aac0f
DTITLE=Sinatra, Frank - With a song in my heart
DYEAR=1900
DGENRE=Jazz
TTITLE0=It had to be you
TTITLE1=If loveliness were music
TTITLE2=I've had this feeling before
TTITLE3=My heart tells me
TTITLE4=I couldn't sleep a wink last night
TTITLE5=San Fernando Valley
TTITLE6=I'll ne seeing you
TTITLE7=It could happen to you
TTITLE8=Amor
TTITLE9=I'll walk alone
TTITLE10=Porgy and bess medley
TTITLE11=Together
TTITLE12=The trolley song
TTITLE13=With a song in my heart
TTITLE14=Begin the beguine
EXTD=
EXTT0=
EXTT1=
EXTT2=
EXTT3=
EXTT4=
EXTT5=
EXTT6=
EXTT7=
EXTT8=
EXTT9=
EXTT10=
EXTT11=
EXTT12=
EXTT13=
EXTT14=
PLAYORDER=
